<svg xmlns="http://www.w3.org/2000/svg" version="1.1" xmlns:xlink="http://www.w3.org/1999/xlink" xmlns:svgjs="http://svgjs.com/svgjs" width="512" height="512" x="0" y="0" viewBox="0 0 512 512" style="enable-background:new 0 0 512 512" xml:space="preserve" class=""><g>
<g>
	<g>
		<path d="M249.032,405.538c-40.094-0.291-83.991-7.826-125.878-25.543c-25.191-10.655-48.196-24.734-67.529-44.324    c-15.105-15.306-26.696-32.808-32.544-53.727c-7.664-27.414-3.294-53.247,10.634-77.695c12.35-21.678,30.009-38.277,50.542-52.006    c24.56-16.421,51.543-27.34,80.073-34.533c65.588-16.534,130.747-14.973,195.24,5.571c28.836,9.185,55.494,22.785,78.957,42.168    c16.227,13.405,29.65,29.081,38.881,48.18c7.94,16.427,11.772,33.615,10.309,51.878c-1.342,16.764-6.878,32.13-15.677,46.361    c-12.331,19.943-29.119,35.464-48.49,48.336c-24.478,16.266-51.389,26.943-79.715,34.267    C314.457,402.066,284.544,405.422,249.032,405.538z" fill="#ffffff" data-original="#000000" class=""></path>
        <g>
			<g>
				<path d="M511.996,291.53c-0.145,5.147-4.016,9.069-8.858,8.975c-4.673-0.092-8.244-3.863-8.11-8.565      c0.14-4.935,4.408-9.108,9.232-9.026C508.779,282.99,512.131,286.725,511.996,291.53z" fill="#ffffff" data-original="#000000" class=""></path>
                <path d="M492.489,325.808c-3.641-0.065-6.797-3.348-6.745-7.015c0.051-3.523,2.953-6.294,6.564-6.268      c3.739,0.027,6.704,2.994,6.697,6.7C498.997,322.892,496.047,325.871,492.489,325.808z" fill="#ffffff" data-original="#000000" class=""></path>
                <path d="M484.379,341.411c0.031,3.391-2.658,6.162-6.049,6.234c-3.4,0.072-6.184-2.585-6.275-5.99      c-0.092-3.451,2.72-6.355,6.16-6.362C481.606,335.286,484.349,338.009,484.379,341.411z" fill="#ffffff" data-original="#000000" class=""></path>
                <path d="M465.767,359.98c0.048,3.16-2.507,5.781-5.642,5.787c-3.114,0.005-5.692-2.61-5.686-5.769      c0.005-3.074,2.461-5.576,5.542-5.646C463.131,354.28,465.719,356.797,465.767,359.98z" fill="#ffffff" data-original="#000000" class=""></path>
                <path d="M440.758,369.93c3.246,0.028,5.814,2.554,5.744,5.65c-0.067,2.993-2.696,5.386-5.829,5.306      c-3.104-0.079-5.544-2.6-5.48-5.66C435.258,372.232,437.704,369.904,440.758,369.93z" fill="#ffffff" data-original="#000000" class=""></path>
			</g>
            <g>
				<path d="M72.439,143.82c-0.035,4.952-4.205,9.243-9.002,9.262c-4.499,0.018-8.383-3.95-8.306-8.487      c0.081-4.775,4.418-8.906,9.371-8.926C69.048,135.651,72.472,139.167,72.439,143.82z" fill="#ffffff" data-original="#000000" class=""></path>
                <path d="M41.69,157.341c3.688,0.028,6.64,3.041,6.622,6.76c-0.017,3.594-2.84,6.38-6.44,6.357      c-3.829-0.025-7.009-3.117-6.937-6.746C35.005,160.15,38.012,157.314,41.69,157.341z" fill="#ffffff" data-original="#000000" class=""></path>
                <path d="M25.33,178.495c3.418,0.042,6.109,2.788,6.063,6.187c-0.046,3.367-2.825,6.133-6.177,6.148      c-3.452,0.015-6.26-2.875-6.163-6.342C19.147,181.085,21.904,178.453,25.33,178.495z" fill="#ffffff" data-original="#000000" class=""></path>
                <path d="M19.364,207.903c-0.043,3.15-2.635,5.635-5.83,5.589c-3.206-0.046-5.659-2.603-5.566-5.801      c0.09-3.099,2.555-5.474,5.684-5.476C16.854,202.212,19.407,204.755,19.364,207.903z" fill="#ffffff" data-original="#000000" class=""></path>
                <path d="M11.019,231.237c0.053,3.02-2.318,5.448-5.354,5.482C2.518,236.754,0,234.214,0,231.004c0-3.115,2.297-5.509,5.3-5.523      C8.344,225.466,10.964,228.103,11.019,231.237z" fill="#ffffff" data-original="#000000" class=""></path>
			</g>
		</g>
	</g>
    <g>
		<path style="" d="M262.916,272.299c-3.98,3.665-7.554,6.901-11.034,10.234c-0.426,0.408-0.448,1.335-0.49,2.031    c-0.43,7.257-1.158,14.471-3.418,21.426c-0.744,2.289-1.618,4.573-2.739,6.697c-5.264,9.981-16.399,12.923-25.959,6.807    c-2.177-1.393-4.003-3.335-6.126-5.14c-0.438,1.049-0.792,2.248-1.402,3.297c-2.311,3.968-4.263,8.257-7.164,11.747    c-5.53,6.652-14.226,7.926-21.924,3.926c-5.323-2.766-8.728-7.239-11.262-12.509c-2.968-6.173-4.297-12.741-4.704-19.528    c-0.713-11.873,0.749-23.559,3.253-35.124c3.1-14.317,6.652-28.542,9.442-42.916c1.486-7.654,2.01-15.525,2.515-23.328    c0.271-4.198-1.015-8.246-4.201-11.979c-1.944,1.653-3.915,3.124-5.642,4.839c-4.107,4.08-6.993,8.993-9.395,14.228    c-5.389,11.745-8.21,24.243-10.998,36.769c-3.72,16.714-5.556,33.663-6.679,50.712c-0.005,0.073,0.002,0.148-0.009,0.22    c-0.354,2.286,0.372,5.15-2.76,6.065c-3.345,0.979-6.743,0.886-9.105-1.991c-1.975-2.405-3.709-5.121-5.01-7.947    c-4.662-10.129-7.359-20.901-8.832-31.874c-2.533-18.87-4.43-37.825-6.796-56.719c-0.744-5.941-1.982-11.836-3.301-17.682    c-0.494-2.189-1.862-4.181-2.831-6.263c-0.418-0.047-0.538-0.061-0.956-0.108c-1.984,2.447-4.249,4.721-5.882,7.382    c-4.449,7.246-6.201,15.414-7.622,23.691c-2.582,15.035-1.274,29.774,2.937,44.375c0.382,1.386-0.939,2.695-2.349,2.417    c-0.533-0.105-0.986-0.27-1.231-0.594c-2.42-3.19-4.809-6.484-6.623-10.038c-4.254-8.337-5.488-17.444-5.572-26.661    c-0.107-11.763,1.604-23.238,6.894-33.931c2.639-5.335,5.92-10.189,11.495-12.869c6.372-3.062,12.989-3.339,19.67-1.102    c4.46,1.493,7.583,4.62,9.827,8.661c3.661,6.59,5.337,13.843,6.192,21.187c2.542,21.826,4.758,43.69,7.109,65.539    c0.107,0.997,0.288,1.986,0.472,3.235c1.057-8.241,1.915-16.207,3.131-24.118c1.937-12.601,4.251-25.131,8.232-37.293    c2.137-6.527,4.889-12.712,9.219-18.11c6.302-7.857,14.471-10.322,24.128-8.203c4.599,1.009,7.76,3.948,9.822,8.112    c2.305,4.654,2.812,9.669,2.866,14.759c0.142,13.478-1.939,26.699-4.409,39.901c-2.666,14.252-5.316,28.52-7.395,42.864    c-1.626,11.214-1.691,22.542,1.847,33.526c0.928,2.881,2.498,5.573,3.935,8.266c0.89,1.668,2.389,1.993,3.736,0.553    c2.428-2.595,5.271-5.025,6.918-8.076c2.593-4.801,4.381-10.043,6.401-15.14c0.325-0.82,0.234-1.885,0.092-2.798    c-1.089-7.035-0.525-13.9,2.216-20.489c0.623-1.497,0.309-2.278-0.749-3.361c-12.978-13.279-9.182-34.872,7.496-42.601    c5.165-2.394,10.612-2.725,16.114-1.366c3.51,0.867,6.046,3.147,8.064,6.081c4.076,5.926,6.16,12.608,7.352,19.597    c0.615,3.604,0.953,7.256,1.406,10.887c0.106,0.85,0.174,1.704,0.316,3.12c2.624-2.394,4.773-4.577,7.152-6.471    c3.348-2.664,4.623-5.873,5.108-10.245c1.63-14.696,3.918-29.319,6.02-43.961c0.614-4.275,0.705-4.232-3.412-5.658    c-8.926-3.09-17.79-6.368-26.779-9.262c-5.06-1.629-10.329-2.212-15.552-0.347c-4.724,1.686-8.301,4.529-9.899,9.524    c-0.221,0.689-1.328,1.621-1.903,1.543c-0.787-0.107-1.849-0.939-2.106-1.695c-0.864-2.545-0.053-4.907,1.454-7.034    c2.85-4.021,6.882-6.31,11.521-7.566c10.269-2.781,20.501-1.845,30.637,0.703c5.816,1.462,11.545,3.272,17.417,4.955    c0.094-0.164,0.339-0.399,0.355-0.648c0.412-6.432,0.997-12.867-0.983-19.186c-1.186-3.785-0.265-5.063,3.733-5.445    c6.194-0.591,11.245,2.753,13.255,8.901c1.712,5.237,1.865,10.659,1.552,16.095c-0.357,6.194-0.411,6.227,5.554,7.693    c5.495,1.35,11.053,2.4,16.744,1.832c10.77-1.075,19.926-9.358,23.304-20.842c1.394-4.737,1.71-9.359-0.855-13.827    c-0.146-0.254-0.283-0.513-0.438-0.762c-3.013-4.85-5.221-5.144-8.649-0.641c-2.687,3.529-4.942,7.398-7.233,11.21    c-1.042,1.734-3.983,2.735-6.866,1.952c-2.443-0.664-3.613-2.223-3.133-4.749c1.464-7.72,6.699-15.334,16.405-16.644    c2.303-0.311,4.711-0.468,6.999-0.163c8.751,1.165,14.159,8.422,13.522,17.841c-1.24,18.327-13.596,30.874-32.357,32.889    c-7.331,0.787-14.634,0.624-21.897-0.62c-1.63-0.279-2.333-0.013-2.564,1.809c-1.644,12.933-3.536,25.836-5.081,38.78    c-1.823,15.279-2.183,30.547,1.584,45.653c1.109,4.447,2.711,8.648,5.536,12.34c1.066,1.393,2.066,1.565,3.137,0.26    c1.894-2.307,3.978-4.531,5.457-7.093c4.203-7.281,6.802-15.231,8.96-23.319c0.232-0.87,0.109-1.891-0.059-2.804    c-2.645-14.378,0.888-27.427,9.128-39.139c4.85-6.894,11.435-11.743,20.302-12.508c9.019-0.778,15.304,3.74,17.382,12.577    c1.632,6.936,1.794,13.859-1.193,20.474c-4.043,8.953-10.887,14.137-20.909,14.689c-0.639,0.035-1.275,0.11-2.144,0.187    c0.862,8.537,2.22,16.74,7.491,23.654c2.948,3.867,4.433,4.006,8.778,1.712c4.352-2.298,7.843-5.604,11.012-9.305    c7.773-9.08,12.733-19.742,17.698-30.483c2.326-5.031,2.384-8.789-0.959-13.476c-2.811-3.942-4.713-8.842-5.862-13.597    c-2.863-11.85,4.685-23.147,15.964-24.785c0.435-0.063,0.872-0.115,1.31-0.145c7.464-0.516,10.97,2.742,10.37,10.199    c-0.322,4.006-1.757,7.977-2.87,11.815c-0.949,3.274-2.189,6.447-3.476,9.603c-0.597,1.465-0.625,2.629,0.295,3.867    c3.931,5.288,7.768,10.647,11.759,15.888c4.071,5.347,8.283,10.587,12.474,15.926c0.075,0.095,2.92-1.388,3.204-1.523    c1.102-0.526,12.587-6.014,13.976-6.371c1.042-0.268,2.123-0.383,3.197-0.336c0.788,0.034,1.946,0.197,2.147,1.167    c0.091,0.44-0.452,1.221-0.925,1.53c-1.53,0.999-3.151,1.861-4.748,2.756c-4.787,2.68-9.579,5.349-14.543,8.12    c0.387,1.006,0.71,1.876,1.054,2.738c2.347,5.873,3.516,11.995,3.025,18.281c-0.874,11.201-9.781,19.82-21.679,20.829    c-3.336,0.283-6.917-0.098-10.126-1.051c-4.65-1.381-7.164-5.829-6.645-10.673c0.741-6.911,3.531-13.008,8.15-18.147    c2.484-2.764,5.32-5.24,8.185-7.621c1.328-1.103,1.754-1.924,0.723-3.383c-3.841-5.436-7.594-10.935-11.484-16.335    c-1.566-2.173-3.401-4.153-5.353-6.511c-0.534,1.28-0.928,2.201-1.305,3.128c-4.402,10.822-9.438,21.305-16.554,30.657    c-3.53,4.639-7.464,8.856-12.745,11.578c-12.133,6.255-27.289,2.742-36.15-8.423c-1.395-1.758-2.609-3.66-4.082-5.742    c-1.007,2.788-1.733,5.404-2.872,7.826c-2.143,4.556-4.085,9.3-6.904,13.424c-4.852,7.098-14.087,8.586-21.418,3.983    c-5.566-3.494-9.042-8.693-11.452-14.647c-3.616-8.934-5.223-18.279-5.391-27.891    C262.904,274.324,262.916,273.542,262.916,272.299z M229.865,241.343c-0.862,1.452-1.723,2.631-2.311,3.935    c-3.387,7.516-3.908,15.359-2.667,23.43c0.298,1.934,0.833,2.842,3.03,2.97c3.712,0.216,4.2,1.401,2.443,4.671    c-0.208,0.386-0.356,0.806-0.579,1.182c-0.775,1.305-0.364,2.263,0.68,3.26c3.296,3.148,9.725,3.288,13.113,0.145    c0.365-0.338,0.583-1.018,0.583-1.54c0.008-9.072-0.991-17.999-4.61-26.413C237.557,248.356,234.651,244.344,229.865,241.343z     M329.497,266.42c-0.048,0.804-0.112,1.607-0.143,2.411c-0.134,3.564,1.11,4.575,4.601,3.593c3.273-0.921,5.936-2.86,8.043-5.477    c5.931-7.368,7.096-15.688,4.664-24.645c-0.845-3.111-2.505-5.736-5.01-7.827c-1.47-1.227-2.86-1.266-3.903,0.332    c-1.348,2.066-2.731,4.177-3.637,6.452C330.904,249.32,330.049,257.85,329.497,266.42z M227.242,288.494    c-1.108,8.464-1.287,16.74,2.07,24.725c0.366,0.87,0.891,1.679,1.396,2.482c0.737,1.17,1.691,1.423,2.654,0.317    c1.434-1.648,3.084-3.207,4.11-5.093c3.956-7.268,5.531-15.217,6.137-23.392c0.008-0.109-0.15-0.231-0.178-0.273    c-2.637,0.416-5.218,0.989-7.827,1.188C232.924,288.653,230.217,288.494,227.242,288.494z M402.296,292.185    c-6.486,6.099-11.128,12.771-12,21.444c-0.167,1.657,0.635,3.593,1.483,5.128c1.341,2.432,3.21,2.892,5.795,1.883    c3.173-1.239,4.976-3.748,6.064-6.831C406.183,306.598,405.188,299.584,402.296,292.185z M384.682,234.454    c1.62-5.535,4.386-10.976,1.643-16.924C383.214,222.902,383.131,228.589,384.682,234.454z" fill="#7979cb" data-original="#ffffff" class=""></path>
	</g>
</g>















</g></svg>
